<svg width="130" height="130" viewBox="0 0 130 130" fill="none" xmlns="http://www.w3.org/2000/svg">
<path d="M50 8.66025C59.282 3.30127 70.718 3.30127 80 8.66025L106.292 23.8397C115.574 29.1987 121.292 39.1025 121.292 49.8205V80.1795C121.292 90.8975 115.574 100.801 106.292 106.16L80 121.34C70.718 126.699 59.282 126.699 50 121.34L23.7083 106.16C14.4263 100.801 8.70835 90.8975 8.70835 80.1795V49.8205C8.70835 39.1025 14.4263 29.1987 23.7083 23.8397L50 8.66025Z" fill="#FFBE3D"/>
<path fill-rule="evenodd" clip-rule="evenodd" d="M74.493 18.5424C68.6187 15.1525 61.3813 15.1525 55.507 18.5424L29.493 33.5541C23.6187 36.9439 20 43.2086 20 49.9882V80.0117C20 86.7914 23.6187 93.0561 29.493 96.4459L55.507 111.458C61.3813 114.847 68.6187 114.847 74.493 111.458L100.507 96.4459C106.381 93.0561 110 86.7914 110 80.0117V49.9882C110 43.2086 106.381 36.9439 100.507 33.5541L74.493 18.5424ZM72.9941 25.6675C68.0473 22.8129 61.9527 22.8129 57.0059 25.6675L34.9172 38.4141C31.849 40.1847 29.5115 42.8866 28.1786 46.0456C27.3625 47.9798 26.9231 50.0853 26.9231 52.2534V77.7466C26.9231 83.4558 29.9704 88.7313 34.9172 91.5859L57.0059 104.332C61.9527 107.187 68.0473 107.187 72.9941 104.332L95.0828 91.5859C100.03 88.7313 103.077 83.4558 103.077 77.7466V52.2534C103.077 46.5442 100.03 41.2687 95.0828 38.4141L72.9941 25.6675Z" fill="#FFFAEF"/>
<path d="M94 47H102.189C100.946 43.4325 98.4558 40.3605 95.0828 38.4141L94 37.7893V47Z" fill="#FFFAEF"/>
<path d="M34 47V38.9854C31.3818 40.7415 29.3753 43.2093 28.1786 46.0456L34 47Z" fill="#FFFAEF"/>
<path fill-rule="evenodd" clip-rule="evenodd" d="M70 72.0586L70 67.5272C70 64.2135 72.3264 60.184 75.1962 58.5272L103.847 41.9857C106.717 40.3289 109.043 41.672 109.043 44.9857L109.043 83.9835L70 106.525L70 95.9936L70 72.0586ZM91.3734 83.6537C94.7214 81.7207 97.4356 77.0197 97.4356 73.1537L97.4356 68.2187C97.4356 61.5912 92.7828 58.905 87.0433 62.2187L81.1038 65.6478C80.6255 65.924 80.2378 66.5955 80.2378 67.1478L80.2378 89.0828C80.2378 89.6351 80.6255 89.8589 81.1038 89.5828L91.3734 83.6537Z" fill="#FFFAEF"/>
<path d="M24 40.5168L56.5491 59.309C59.0813 60.771 61.134 64.3264 61.134 67.2503C61.134 70.1742 59.0812 71.3593 56.5491 69.8974L37.9575 59.1635C36.3461 58.2332 35.0398 58.9874 35.0398 60.848C35.0398 62.7087 36.3461 64.9712 37.9575 65.9015L56.5491 76.6354C59.0812 78.0974 61.134 81.6528 61.134 84.5767C61.134 87.5006 59.0812 88.6857 56.5491 87.2238L37.9575 76.4899C36.3461 75.5596 35.0398 76.3138 35.0398 78.1744C35.0398 80.0351 36.3461 82.2976 37.9575 83.2279L57.6699 94.6089C59.583 95.7135 61.134 98.3998 61.134 100.609L61.134 107.197L42.567 96.4776L24 85.2378L24 40.5168Z" fill="#FFFAEF"/>
<path d="M59.1041 23.3259C62.7637 21.2615 67.2363 21.2615 70.8959 23.3259L99.368 39.3871C101.403 40.5349 101.403 43.4651 99.368 44.6129L70.8959 60.6741C67.2363 62.7385 62.7637 62.7385 59.1041 60.6741L30.632 44.6129C28.5973 43.4651 28.5973 40.5349 30.632 39.3871L59.1041 23.3259Z" fill="#FFBE3D"/>
</svg>
