<svg width="20" height="20" viewBox="0 0 20 20" fill="none" xmlns="http://www.w3.org/2000/svg">
<path d="M7.5 2.5H3.33333C2.8731 2.5 2.5 2.8731 2.5 3.33333V7.5C2.5 7.96024 2.8731 8.33333 3.33333 8.33333H7.5C7.96024 8.33333 8.33333 7.96024 8.33333 7.5V3.33333C8.33333 2.8731 7.96024 2.5 7.5 2.5Z" stroke="white" stroke-width="2" stroke-linejoin="round"/>
<path d="M7.5 11.6667H3.33333C2.8731 11.6667 2.5 12.0398 2.5 12.5V16.6667C2.5 17.1269 2.8731 17.5 3.33333 17.5H7.5C7.96024 17.5 8.33333 17.1269 8.33333 16.6667V12.5C8.33333 12.0398 7.96024 11.6667 7.5 11.6667Z" stroke="white" stroke-width="2" stroke-linejoin="round"/>
<path d="M14.5833 8.33333C14.9663 8.33333 15.3456 8.25789 15.6995 8.11132C16.0533 7.96474 16.3749 7.7499 16.6457 7.47906C16.9165 7.20822 17.1314 6.88669 17.2779 6.53283C17.4245 6.17896 17.5 5.79969 17.5 5.41667C17.5 5.03364 17.4245 4.65437 17.2779 4.30051C17.1314 3.94664 16.9165 3.62511 16.6457 3.35427C16.3749 3.08343 16.0533 2.86859 15.6995 2.72202C15.3456 2.57544 14.9663 2.5 14.5833 2.5C13.8097 2.5 13.0679 2.80729 12.5209 3.35427C11.9739 3.90125 11.6666 4.64312 11.6666 5.41667C11.6666 6.19021 11.9739 6.93208 12.5209 7.47906C13.0679 8.02604 13.8097 8.33333 14.5833 8.33333Z" stroke="white" stroke-width="2" stroke-linejoin="round"/>
<path d="M16.6666 11.6667H12.5C12.0397 11.6667 11.6666 12.0398 11.6666 12.5V16.6667C11.6666 17.1269 12.0397 17.5 12.5 17.5H16.6666C17.1269 17.5 17.5 17.1269 17.5 16.6667V12.5C17.5 12.0398 17.1269 11.6667 16.6666 11.6667Z" stroke="white" stroke-width="2" stroke-linejoin="round"/>
</svg>
