<svg width="21" height="19" viewBox="0 0 21 19" fill="none" xmlns="http://www.w3.org/2000/svg">
<path d="M8.16667 18.8C8.77418 18.8 9.26667 18.3075 9.26667 17.7C9.26667 17.0925 8.77418 16.6 8.16667 16.6C7.55915 16.6 7.06667 17.0925 7.06667 17.7C7.06667 18.3075 7.55915 18.8 8.16667 18.8Z" fill="white"/>
<path d="M16.2333 18.8C16.8408 18.8 17.3333 18.3075 17.3333 17.7C17.3333 17.0925 16.8408 16.6 16.2333 16.6C15.6258 16.6 15.1333 17.0925 15.1333 17.7C15.1333 18.3075 15.6258 18.8 16.2333 18.8Z" fill="white"/>
<path d="M1.29167 1.75L5.41667 4.5L7.70834 14.5833H16.875L19.1667 6.79167H10.4583" stroke="white" stroke-width="2" stroke-linecap="round" stroke-linejoin="round"/>
<path d="M10.4583 10.9167H17.7917" stroke="white" stroke-width="2" stroke-linecap="round" stroke-linejoin="round"/>
</svg>
