<svg width="20" height="20" viewBox="0 0 20 20" fill="none" xmlns="http://www.w3.org/2000/svg">
<path d="M9.52835 10.1242C10.0483 10.6334 10.4238 11.2716 10.6163 11.9735C10.8089 12.6754 10.8116 13.4159 10.6242 14.1192C10.4351 14.8234 10.0632 15.4652 9.54616 15.9794C9.02911 16.4936 8.38531 16.8619 7.68001 17.0471C6.9739 17.2339 6.23106 17.2315 5.52615 17.0402C4.82123 16.849 4.17907 16.4756 3.66418 15.9575C2.90909 15.1814 2.49081 14.1387 2.50025 13.0559C2.50969 11.9731 2.94609 10.9378 3.7146 10.175C5.31418 8.58418 7.90043 8.56168 9.52751 10.125L9.52835 10.1242V10.1242Z" stroke="white" stroke-width="2" stroke-linejoin="round"/>
<path d="M9.58334 10L16.6667 2.91669" stroke="white" stroke-width="2" stroke-linecap="round" stroke-linejoin="round"/>
<path d="M12.6271 7.04169L14.8892 9.29169L17.5279 6.66669L15.2663 4.41669L12.6271 7.04169V7.04169Z" stroke="white" stroke-width="2" stroke-linejoin="round"/>
</svg>
