<svg width="20" height="20" viewBox="0 0 20 20" fill="none" xmlns="http://www.w3.org/2000/svg">
<path d="M10 18.3334C14.6024 18.3334 18.3334 14.6024 18.3334 10C18.3334 5.39765 14.6024 1.66669 10 1.66669C5.39765 1.66669 1.66669 5.39765 1.66669 10C1.66669 14.6024 5.39765 18.3334 10 18.3334Z" stroke="white" stroke-width="2" stroke-linecap="round" stroke-linejoin="round"/>
<path d="M8.33335 6.66667V10H11.25C11.692 10 12.116 9.8244 12.4285 9.51184C12.7411 9.19928 12.9167 8.77536 12.9167 8.33333C12.9167 7.89131 12.7411 7.46738 12.4285 7.15482C12.116 6.84226 11.692 6.66667 11.25 6.66667H10.4167M8.33335 6.66667H10.4167M8.33335 6.66667H6.66669M10.4167 6.66667V5" stroke="white" stroke-width="2" stroke-linecap="round" stroke-linejoin="round"/>
<path d="M8.33335 13.3333V10H12.0834C12.5254 10 12.9493 10.1756 13.2619 10.4882C13.5744 10.8007 13.75 11.2246 13.75 11.6667C13.75 12.1087 13.5744 12.5326 13.2619 12.8452C12.9493 13.1577 12.5254 13.3333 12.0834 13.3333H10.4167M8.33335 13.3333H10.4167M8.33335 13.3333H6.66669H10.4167M10.4167 13.3333V15" stroke="white" stroke-width="2" stroke-linecap="round" stroke-linejoin="round"/>
</svg>
