<svg width="20" height="20" viewBox="0 0 20 20" fill="none" xmlns="http://www.w3.org/2000/svg">
<path d="M17.0833 1H2.91667C2.54094 1 2.18061 1.14926 1.91493 1.41493C1.64926 1.68061 1.5 2.04094 1.5 2.41667V16.5833C1.5 16.9591 1.64926 17.3194 1.91493 17.5851C2.18061 17.8507 2.54094 18 2.91667 18H17.0833C17.4591 18 17.8194 17.8507 18.0851 17.5851C18.3507 17.3194 18.5 16.9591 18.5 16.5833V2.41667C18.5 2.04094 18.3507 1.68061 18.0851 1.41493C17.8194 1.14926 17.4591 1 17.0833 1Z" stroke="white" stroke-opacity="0.5" stroke-width="2" stroke-linejoin="round"/>
<path d="M9.99999 11.684V9.79512C10.5604 9.79512 11.1082 9.62894 11.5741 9.31761C12.04 9.00628 12.4032 8.56378 12.6176 8.04605C12.8321 7.52833 12.8882 6.95864 12.7789 6.40903C12.6696 5.85941 12.3997 5.35456 12.0035 4.95831C11.6072 4.56206 11.1024 4.29222 10.5527 4.18289C10.0031 4.07357 9.43344 4.12968 8.91572 4.34412C8.398 4.55857 7.95549 4.92173 7.64416 5.38767C7.33283 5.85361 7.16666 6.4014 7.16666 6.96178" stroke="white" stroke-opacity="0.5" stroke-width="2" stroke-linecap="round" stroke-linejoin="round"/>
<path fill-rule="evenodd" clip-rule="evenodd" d="M10 15.934C10.3131 15.934 10.6134 15.8096 10.8348 15.5882C11.0562 15.3668 11.1806 15.0666 11.1806 14.7535C11.1806 14.4404 11.0562 14.1401 10.8348 13.9187C10.6134 13.6973 10.3131 13.5729 10 13.5729C9.68691 13.5729 9.38663 13.6973 9.16523 13.9187C8.94384 14.1401 8.81946 14.4404 8.81946 14.7535C8.81946 15.0666 8.94384 15.3668 9.16523 15.5882C9.38663 15.8096 9.68691 15.934 10 15.934Z" fill="white" fill-opacity="0.5"/>
</svg>
