<svg width="20" height="20" viewBox="0 0 20 20" fill="none" xmlns="http://www.w3.org/2000/svg">
<path d="M17.5709 12.1855L12.1925 17.563C12.0532 17.7024 11.8878 17.8131 11.7057 17.8885C11.5236 17.964 11.3284 18.0029 11.1313 18.0029C10.9342 18.0029 10.739 17.964 10.5569 17.8885C10.3748 17.8131 10.2094 17.7024 10.07 17.563L3.33337 10.8334V3.33337H10.8334L17.5709 10.0709C17.8501 10.3519 18.0069 10.732 18.0069 11.1282C18.0069 11.5243 17.8501 11.9044 17.5709 12.1855V12.1855Z" stroke="white" stroke-width="2" stroke-linejoin="round"/>
<path fill-rule="evenodd" clip-rule="evenodd" d="M7.70837 8.75002C7.98464 8.75002 8.24959 8.64027 8.44494 8.44492C8.64029 8.24957 8.75004 7.98462 8.75004 7.70835C8.75004 7.43209 8.64029 7.16713 8.44494 6.97178C8.24959 6.77643 7.98464 6.66669 7.70837 6.66669C7.4321 6.66669 7.16715 6.77643 6.9718 6.97178C6.77645 7.16713 6.6667 7.43209 6.6667 7.70835C6.6667 7.98462 6.77645 8.24957 6.9718 8.44492C7.16715 8.64027 7.4321 8.75002 7.70837 8.75002Z" fill="white"/>
</svg>
